<?xml version="1.0" encoding="UTF-8"?>
<svg width="17px" height="19px" viewBox="0 0 17 19" version="1.1" xmlns="http://www.w3.org/2000/svg" xmlns:xlink="http://www.w3.org/1999/xlink">
    <title>Mask@3x</title>
    <defs>
        <path d="M13.75,2.5 L13.75,1.625 C13.75,1.14175084 13.3582492,0.75 12.875,0.75 C12.3917508,0.75 12,1.14175084 12,1.625 L12,2.5 L12,2.5 L5,2.5 L5,1.625 C5,1.14175084 4.60824916,0.75 4.125,0.75 C3.64175084,0.75 3.25,1.14175084 3.25,1.625 L3.25,2.5 L3.25,2.5 L2.375,2.5 C1.40375,2.5 0.63375,3.2875 0.63375,4.25 L0.625,16.5 C0.625,17.4625 1.40375,18.25 2.375,18.25 L14.625,18.25 C15.5875,18.25 16.375,17.4625 16.375,16.5 L16.375,4.25 C16.375,3.2875 15.5875,2.5 14.625,2.5 L13.75,2.5 Z M2.375,16.5 L2.375,6.875 L14.625,6.875 L14.625,16.5 L2.375,16.5 Z M5.125,8.625 L7.5,8.625 C8.05228475,8.625 8.5,9.07271525 8.5,9.625 L8.5,12 C8.5,12.5522847 8.05228475,13 7.5,13 L5.125,13 C4.57271525,13 4.125,12.5522847 4.125,12 L4.125,9.625 C4.125,9.07271525 4.57271525,8.625 5.125,8.625 Z" id="path-1"></path>
    </defs>
    <g id="Page-1" stroke="none" stroke-width="1" fill="none" fill-rule="evenodd">
        <g id="Home-Page" transform="translate(-152.000000, -1280.000000)">
            <g id="Upcoming/Last-Event" transform="translate(0.000000, 1174.000000)">
                <g id="Atoms-/-icons-/-System-/-Calendar" transform="translate(152.000000, 106.000000)">
                    <mask id="mask-2" fill="white">
                        <use xlink:href="#path-1"></use>
                    </mask>
                    <use id="Mask" fill="#5D60A6" xlink:href="#path-1"></use>
                </g>
            </g>
        </g>
    </g>
</svg>