<?xml version="1.0" encoding="UTF-8"?>
<svg width="24px" height="24px" viewBox="0 0 24 24" version="1.1" xmlns="http://www.w3.org/2000/svg" xmlns:xlink="http://www.w3.org/1999/xlink">
    <title>brand / instagram</title>
    <defs>
        <rect id="path-1" x="0" y="0" width="24" height="24"></rect>
    </defs>
    <g id="Symbols" stroke="none" stroke-width="1" fill="none" fill-rule="evenodd">
        <g id="Top-Bar/Normal" transform="translate(-1269.000000, -3.000000)">
            <g id="brand-/-instagram" transform="translate(1269.000000, 3.000000)">
                <mask id="mask-2" fill="white">
                    <use xlink:href="#path-1"></use>
                </mask>
                <g id="brand-/-instagram-(Background/Mask)"></g>
                <path d="M7.37595272,12.0000048 C7.37595272,14.5540047 9.44495296,16.6240053 11.9989529,16.6240053 C14.5509529,16.6240053 16.621953,14.5540047 16.621953,12.0000048 C16.621953,9.4470048 14.5509529,7.37700462 11.9989529,7.37700462 C9.44495296,7.37700462 7.37595272,9.4470048 7.37595272,12.0000048 Z M8.99495316,12.0010052 C8.99495316,10.3420051 10.3399528,8.99800491 11.9989529,8.99800491 C13.6579529,8.99800491 15.0009537,10.3420051 15.0009537,12.0010052 C15.0009537,13.6590052 13.6579529,15.0040045 11.9989529,15.0040045 C10.3399528,15.0040045 8.99495316,13.6590052 8.99495316,12.0010052 Z M17.883954,7.20700455 C17.883954,6.61164159 17.4013159,6.12900496 16.805953,6.12900496 C16.2105901,6.12900496 15.727953,6.61164159 15.727953,7.20700455 C15.727953,7.80236745 16.2105901,8.28500462 16.805953,8.28500462 C17.4013159,8.28500462 17.883954,7.80236745 17.883954,7.20700455 Z M17.8999529,3.47900486 C17.2009529,3.21600485 16.461953,3.07500478 15.713953,3.05900478 C14.750953,3.01700478 14.4459529,3.00500488 12.003953,3.00500488 C9.56195307,3.00500488 9.24895293,3.00500488 8.29395294,3.05900478 C7.54795295,3.07400478 6.80895317,3.21500486 6.10995317,3.47900486 C4.89995313,3.94600487 3.94495302,4.90200484 3.47695303,6.11100483 C3.21395302,6.81100482 3.07295312,7.54900467 3.05795312,8.2970047 C3.01495312,9.25900471 3.00195312,9.56400466 3.00195312,12.0070047 C3.00195312,14.4490047 3.00195312,14.7600048 3.05795312,15.7170048 C3.07295312,16.4650048 3.21395302,17.2030041 3.47695303,17.9040041 C3.94595304,19.112004 4.90095305,20.0680031 6.11095309,20.5360031 C6.80695307,20.8080031 7.5459528,20.9620039 8.2959528,20.9860039 C9.2589528,21.0280039 9.56395292,21.0410042 12.0059528,21.0410042 C14.4479527,21.0410042 14.7609529,21.0410042 15.7159529,20.9860039 C16.4629529,20.9710039 17.2019537,20.8290052 17.9019537,20.5670052 C19.1109537,20.0980051 20.0659522,19.1430048 20.5349522,17.9340048 C20.7979522,17.2340048 20.9389528,16.4960049 20.9539528,15.7480049 C20.9969528,14.7860049 21.0099525,14.481005 21.0099525,12.0380049 C21.0099525,9.5950048 21.0099525,9.28500485 20.9539528,8.32800484 C20.9409528,7.57000482 20.8009533,6.81900483 20.5329533,6.11100483 C20.0639533,4.90200484 19.1089529,3.94600487 17.8999529,3.47900486 Z M19.003952,17.3310041 C18.698952,18.1180041 18.0779531,18.7400036 17.2919531,19.0420036 C16.7569531,19.2410036 16.192953,19.3450045 15.621953,19.3530045 C14.671953,19.3970045 14.4039538,19.4080048 11.9679537,19.4080048 C9.52995372,19.4080048 9.28095299,19.4080045 8.312953,19.3530045 C7.74395299,19.3460045 7.17795306,19.2410036 6.64395308,19.0420036 C5.85495311,18.7410036 5.22995323,18.1190041 4.92495322,17.3310041 C4.72895323,16.7970042 4.62295287,16.2320045 4.61395288,15.6620045 C4.57095287,14.7120045 4.5609529,14.4440053 4.5609529,12.0080051 C4.5609529,9.57100511 4.56095288,9.32200444 4.61395288,8.35300446 C4.62095288,7.77700448 4.72495322,7.20700467 4.92495322,6.66600466 C5.22995323,5.87700468 5.85495311,5.25600475 6.64395308,4.95400476 C7.17795306,4.75600477 7.74395299,4.65100489 8.312953,4.64300489 C9.26395297,4.60000489 9.53095365,4.58800459 11.9679537,4.58800459 C14.4049537,4.58800459 14.654953,4.58800489 15.621953,4.64300489 C16.192953,4.65000489 16.7569531,4.75500476 17.2919531,4.95400476 C18.0779531,5.25700477 18.698952,5.87900466 19.003952,6.66600466 C19.199952,7.20000464 19.3059529,7.76500481 19.3149529,8.33500481 C19.3579529,9.28600478 19.3689518,9.5530045 19.3689518,11.9900045 C19.3689518,14.4260046 19.3689525,14.6880049 19.3259525,15.6440048 L19.3149529,15.6440048 L19.3149529,15.6430044 C19.3079529,16.2190044 19.203952,16.7900041 19.003952,17.3310041 Z" fill="#FFFFFF" mask="url(#mask-2)"></path>
            </g>
        </g>
    </g>
</svg>